<svg xmlns="http://www.w3.org/2000/svg" width="19.436" height="18.961" viewBox="0 0 19.436 18.961"><path d="M18.133,10.205A9.676,9.676,0,0,0,14.6,6.668a9.505,9.505,0,0,0-4.878-1.3,9.506,9.506,0,0,0-4.878,1.3A9.675,9.675,0,0,0,1.3,10.205,9.506,9.506,0,0,0,0,15.083,9.444,9.444,0,0,0,1.854,20.8a9.518,9.518,0,0,0,4.789,3.511.566.566,0,0,0,.506-.088.5.5,0,0,0,.164-.379q0-.038-.006-.683T7.3,22.03l-.291.05a3.713,3.713,0,0,1-.7.044,5.351,5.351,0,0,1-.879-.089,1.965,1.965,0,0,1-.848-.379,1.606,1.606,0,0,1-.557-.778L3.9,20.588a3.162,3.162,0,0,0-.4-.645,1.527,1.527,0,0,0-.55-.481L2.86,19.4a.929.929,0,0,1-.164-.152.694.694,0,0,1-.114-.177q-.038-.089.063-.146a.821.821,0,0,1,.367-.057l.253.038a1.847,1.847,0,0,1,.626.3,2.042,2.042,0,0,1,.614.658,2.231,2.231,0,0,0,.7.791,1.49,1.49,0,0,0,.829.272,3.6,3.6,0,0,0,.721-.063,2.517,2.517,0,0,0,.569-.19,2.05,2.05,0,0,1,.62-1.3,8.664,8.664,0,0,1-1.3-.228,5.164,5.164,0,0,1-1.189-.494A3.407,3.407,0,0,1,4.441,17.8a4.074,4.074,0,0,1-.664-1.329,6.318,6.318,0,0,1-.259-1.9,3.691,3.691,0,0,1,1-2.607,3.4,3.4,0,0,1,.089-2.581,1.773,1.773,0,0,1,1.088.171,7.608,7.608,0,0,1,1.057.487q.335.2.538.342a9.139,9.139,0,0,1,4.859,0l.481-.3a6.81,6.81,0,0,1,1.164-.557,1.658,1.658,0,0,1,1.025-.139,3.369,3.369,0,0,1,.1,2.581,3.691,3.691,0,0,1,1,2.607,6.389,6.389,0,0,1-.259,1.9,3.916,3.916,0,0,1-.67,1.329,3.538,3.538,0,0,1-1.025.841,5.174,5.174,0,0,1-1.19.494,8.655,8.655,0,0,1-1.3.228,2.254,2.254,0,0,1,.658,1.8v2.67a.5.5,0,0,0,.158.379.55.55,0,0,0,.5.088,9.517,9.517,0,0,0,4.79-3.511,9.446,9.446,0,0,0,1.854-5.713A9.514,9.514,0,0,0,18.133,10.205Z" transform="translate(0 -5.365)" fill="#4d5be7"/></svg>