<svg xmlns="http://www.w3.org/2000/svg" width="12.332" height="12.03" viewBox="0 0 12.332 12.03"><path d="M11.5,8.436A6.139,6.139,0,0,0,9.261,6.192a6.031,6.031,0,0,0-3.095-.827,6.031,6.031,0,0,0-3.095.827A6.138,6.138,0,0,0,.827,8.436a6.188,6.188,0,0,0,.349,6.72,6.039,6.039,0,0,0,3.039,2.228.359.359,0,0,0,.321-.056.314.314,0,0,0,.1-.241q0-.024,0-.434t0-.714l-.185.032A2.356,2.356,0,0,1,4,16a3.4,3.4,0,0,1-.558-.056,1.247,1.247,0,0,1-.538-.241,1.019,1.019,0,0,1-.353-.494l-.08-.185a2.006,2.006,0,0,0-.253-.409.969.969,0,0,0-.349-.305l-.056-.04a.589.589,0,0,1-.1-.1.44.44,0,0,1-.072-.112q-.024-.056.04-.092a.521.521,0,0,1,.233-.036l.161.024a1.172,1.172,0,0,1,.4.193,1.3,1.3,0,0,1,.389.417,1.415,1.415,0,0,0,.446.5.945.945,0,0,0,.526.173,2.283,2.283,0,0,0,.458-.04,1.6,1.6,0,0,0,.361-.12,1.3,1.3,0,0,1,.393-.827,5.5,5.5,0,0,1-.823-.145,3.276,3.276,0,0,1-.755-.313,2.161,2.161,0,0,1-.646-.538,2.585,2.585,0,0,1-.421-.843,4.009,4.009,0,0,1-.165-1.2,2.342,2.342,0,0,1,.634-1.654,2.158,2.158,0,0,1,.056-1.638,1.125,1.125,0,0,1,.69.108,4.827,4.827,0,0,1,.67.309q.213.128.341.217a5.8,5.8,0,0,1,3.083,0l.305-.193a4.321,4.321,0,0,1,.738-.353A1.052,1.052,0,0,1,9.4,7.918a2.137,2.137,0,0,1,.064,1.638,2.342,2.342,0,0,1,.634,1.654,4.054,4.054,0,0,1-.165,1.208,2.485,2.485,0,0,1-.425.843,2.244,2.244,0,0,1-.65.534,3.283,3.283,0,0,1-.755.313,5.491,5.491,0,0,1-.823.145,1.43,1.43,0,0,1,.417,1.14v1.694a.32.32,0,0,0,.1.241.349.349,0,0,0,.317.056,6.038,6.038,0,0,0,3.039-2.228A6.187,6.187,0,0,0,11.5,8.436Z" transform="translate(0 -5.365)" fill="#fff"/></svg>