<svg xmlns="http://www.w3.org/2000/svg" width="54" height="54" viewBox="0 0 54 54"><path d="M51.22,21H46.168A1.94,1.94,0,0,1,44.8,17.689l3.572-3.571a2.782,2.782,0,0,0,0-3.933L43.815,5.632a2.847,2.847,0,0,0-3.933,0L36.311,9.2A1.939,1.939,0,0,1,33,7.832V2.78A2.783,2.783,0,0,0,30.22,0H23.78A2.783,2.783,0,0,0,21,2.78V7.832A1.939,1.939,0,0,1,17.689,9.2L14.118,5.632a2.847,2.847,0,0,0-3.933,0L5.632,10.185a2.782,2.782,0,0,0,0,3.933L9.2,17.689A1.94,1.94,0,0,1,7.832,21H2.78A2.783,2.783,0,0,0,0,23.78v6.439A2.783,2.783,0,0,0,2.78,33H7.832A1.94,1.94,0,0,1,9.2,36.311L5.632,39.882a2.782,2.782,0,0,0,0,3.933l4.553,4.553a2.845,2.845,0,0,0,3.933,0L17.689,44.8A1.94,1.94,0,0,1,21,46.168V51.22A2.783,2.783,0,0,0,23.78,54h6.439A2.783,2.783,0,0,0,33,51.22V46.168A1.94,1.94,0,0,1,36.31,44.8l3.571,3.572a2.847,2.847,0,0,0,3.933,0l4.553-4.553a2.782,2.782,0,0,0,0-3.933l-3.572-3.571A1.94,1.94,0,0,1,46.168,33H51.22A2.783,2.783,0,0,0,54,30.22V23.78A2.783,2.783,0,0,0,51.22,21ZM52,30.22a.781.781,0,0,1-.78.78H46.168a3.94,3.94,0,0,0-2.786,6.726L46.954,41.3a.78.78,0,0,1,0,1.1L42.4,46.954a.78.78,0,0,1-1.1,0l-3.571-3.572A3.94,3.94,0,0,0,31,46.168V51.22a.781.781,0,0,1-.78.78H23.78a.781.781,0,0,1-.78-.78V46.168a3.879,3.879,0,0,0-2.432-3.64,3.985,3.985,0,0,0-1.533-.311,3.885,3.885,0,0,0-2.761,1.164L12.7,46.953a.78.78,0,0,1-1.1,0L7.046,42.4a.78.78,0,0,1,0-1.1l3.572-3.571A3.939,3.939,0,0,0,7.832,31H2.78A.781.781,0,0,1,2,30.22V23.78A.781.781,0,0,1,2.78,23H7.832a3.94,3.94,0,0,0,2.786-6.726L7.046,12.7a.78.78,0,0,1,0-1.1L11.6,7.046a.78.78,0,0,1,1.1,0l3.571,3.571A3.94,3.94,0,0,0,23,7.832V2.78A.781.781,0,0,1,23.78,2h6.439A.781.781,0,0,1,31,2.78V7.832a3.94,3.94,0,0,0,6.726,2.786L41.3,7.047a.78.78,0,0,1,1.1,0L46.954,11.6a.78.78,0,0,1,0,1.1l-3.572,3.571A3.94,3.94,0,0,0,46.168,23H51.22a.78.78,0,0,1,.78.779Z" fill="#4d5be7"/><path d="M27,18a9,9,0,1,0,9,9A9.01,9.01,0,0,0,27,18Zm0,16a7,7,0,1,1,7-7A7.009,7.009,0,0,1,27,34Z" fill="#4d5be7"/></svg>