<svg xmlns="http://www.w3.org/2000/svg" width="21.2" height="18.8" viewBox="0 0 21.2 18.8"><path d="M29.4,37.139a.4.4,0,1,1,0-.8c.255,0,.511-.012.762-.034a.4.4,0,0,1,.072.8C29.959,37.126,29.679,37.139,29.4,37.139Zm2.37-.323a.4.4,0,0,1-.107-.785c.244-.068.488-.148.724-.239a.4.4,0,0,1,.285.748c-.259.1-.527.187-.794.261A.388.388,0,0,1,31.77,36.815Zm2.2-.952a.4.4,0,0,1-.208-.742c.217-.132.43-.275.633-.426a.4.4,0,1,1,.476.643c-.223.165-.456.322-.694.466A.4.4,0,0,1,33.965,35.864Zm1.857-1.508a.4.4,0,0,1-.292-.674c.173-.185.34-.38.5-.58a.4.4,0,0,1,.63.492c-.171.22-.354.433-.543.635A.4.4,0,0,1,35.822,34.356ZM37.206,32.4a.4.4,0,0,1-.354-.585c.117-.224.225-.457.322-.692a.4.4,0,0,1,.74.3c-.106.258-.224.512-.352.758A.4.4,0,0,1,37.206,32.4Zm.807-2.251a.414.414,0,0,1-.082-.008.4.4,0,0,1-.309-.474c.052-.247.093-.5.123-.754a.4.4,0,1,1,.794.093c-.032.276-.078.554-.134.825A.4.4,0,0,1,38.013,30.154Z" transform="translate(-17.4 -18.339)" fill="#4d5be7"/><path d="M25,12.6a.4.4,0,0,1-.4-.4,8.4,8.4,0,1,0-16.8,0,.4.4,0,0,1-.8,0,9.2,9.2,0,0,1,18.4,0A.4.4,0,0,1,25,12.6Z" transform="translate(-4.2 -3)" fill="#4d5be7"/><path d="M3.2,21.6a.4.4,0,0,1-.283-.117l-2.8-2.8a.4.4,0,0,1,.566-.566l2.8,2.8A.4.4,0,0,1,3.2,21.6Z" transform="translate(0 -12)" fill="#4d5be7"/><path d="M7.4,21.6a.4.4,0,0,1-.283-.683l2.8-2.8a.4.4,0,1,1,.566.566l-2.8,2.8A.4.4,0,0,1,7.4,21.6Z" transform="translate(-4.2 -12)" fill="#4d5be7"/></svg>